<?xml version="1.0" encoding="UTF-8" standalone="no"?>
<svg xmlns="http://www.w3.org/2000/svg" xmlns:xlink="http://www.w3.org/1999/xlink">
  <defs>
    <rect
      id="border-rect"
      y="0"
      x="0"
      height="512"
      width="512"
      style="fill:#ffffff;stroke:#000000;stroke-width:64;"
    />
    <rect
      id="bar-rect"
      y="64"
      x="64"
      height="32"
      width="384"
      style="fill:#000000;"
    />
    <path
      id="r"
      d="M 41.799975,236.38702 H 28.717186 v 26.0264 H 16.97979 V 194.8654 h 23.753149 q 11.691003,0 18.046826,5.2424 6.355823,5.24239 6.355823,15.17047 0,6.77336 -3.293893,11.36625 -3.247501,4.5465 -9.093003,7.00532 l 15.170469,28.16047 v 0.60311 H 55.346693 Z m -13.082789,-9.41775 h 12.062146 q 5.938287,0 9.278574,-2.96914 3.340287,-3.01554 3.340287,-8.21154 0,-5.42797 -3.108323,-8.39711 -3.061929,-2.96914 -9.185788,-3.06193 H 28.717186 Z"
    />
    <g id='minimum'>
      <use xlink:href="#bar-rect" id="top-rect"/>
      <use xlink:href="#bar-rect" id="bottom-rect-rect" transform="scale(1,-1) translate(0,-512)"/>
      <use xlink:href="#r"        id="left-r"           transform="scale(3.76593904278, 3.78791802117) translate(0,-161)"/>
      <use xlink:href="#r"        id="right-r"          transform="scale(3.76593904278, 3.78791802117) translate(0,161) rotate(180, 67.9777333334, 67.5833)"/>
    </g>
  </defs>

  <symbol id="simple" viewBox="0 0 512 512">
    <use xlink:href="#minimum"/>
  </symbol>

  <symbol id="bordered" viewBox="0 0 512 512">
    <use xlink:href="#border-rect" style="fill-opacity:0"/>
    <use xlink:href="#minimum"/>
  </symbol>

  <symbol id="bordered-filled" viewBox="0 0 512 512">
    <use xlink:href="#border-rect"/>
    <use xlink:href="#minimum"/>
  </symbol>

</svg>
